<?xml version="1.0" encoding="UTF-8"?>
<svg id="Layer_2" data-name="Layer 2" xmlns="http://www.w3.org/2000/svg" viewBox="0 0 18.06 16.3">
  <defs>
    <style>
      .cls-1 {
        fill: #cb919a;
      }
    </style>
  </defs>
  <g id="Icons">
    <path class="cls-1" d="m9.02,16.3c-.23,0-.47-.09-.64-.27L1.57,9.21c-2.09-2.09-2.09-5.52.01-7.62C2.62.56,3.98,0,5.4,0c1.35,0,2.62.5,3.62,1.4.99-.89,2.3-1.4,3.63-1.4,1.42,0,2.82.58,3.82,1.59,2.1,2.1,2.1,5.52,0,7.63l-.33.35-6.49,6.47c-.18.18-.41.26-.64.26ZM5.4,1.5c-1.03,0-2.01.41-2.77,1.15-1.51,1.52-1.51,3.99,0,5.51l.35.37,6.03,6.03,6.4-6.4c1.52-1.52,1.52-3.99,0-5.51-.73-.73-1.74-1.15-2.76-1.15s-2.04.42-2.76,1.15l-.87.87-.87-.87c-.74-.74-1.72-1.15-2.75-1.15Z"/>
  </g>
</svg>